# xmcd
# 
# Track frame offsets:
#     150
#     21400
#     40125
#     63642
#     90125
#     106087
#     126147
#     144562
#     156175
#     173775
#     196237
#     220975
#     240075
#     267462
#     294437
# 
# Disc length: 4193
# 
# Revision: 0
# Processed by: cddbd v1.5.2PL0 Copyright (c) Steve Scherf et al.
# Submitted via: BonkEnc v1.0beta4
# 
DISCID=cd105f0f
DTITLE=New Age and New Sounds Vol.64 - Winter
DYEAR=1998
DGENRE=New Age
TTITLE0=Sam Riney - Shape My Spirit
TTITLE1=Michael Hedges - Oracle
TTITLE2=Kitaro - Silk Road Fantasy
TTITLE3=Marcome' - Ye'ku
TTITLE4=Phil Nicholas - Futurzone
TTITLE5=Alan Stivell - Let The Plinn
TTITLE6=Yanni - Overture - Carol's Theme
TTITLE7=Chianese, Levin and Many - Brainstorming
TTITLE8=Gipsy Kings - No Volvere
TTITLE9=Ludovico Einaudi - Le Onde
TTITLE10=Premartha - Real Home
TTITLE11=Bobby Caldwell - Walk On By
TTITLE12=Vibrazioni Productions Avec stephanie Stocks - Face a face
TTITLE13=Gandalf - Dreamcatcher
TTITLE14=Mannheim Steamroller - Jingle Bells
EXTD=
EXTT0=
EXTT1=
EXTT2=
EXTT3=
EXTT4=
EXTT5=
EXTT6=
EXTT7=
EXTT8=
EXTT9=
EXTT10=
EXTT11=
EXTT12=
EXTT13=
EXTT14=
PLAYORDER=
